<?xml version="1.0" encoding="UTF-8" ?>
<!DOCTYPE svg PUBLIC "-//W3C//DTD SVG 1.1//EN" "http://www.w3.org/Graphics/SVG/1.1/DTD/svg11.dtd">
<svg width="318pt" height="90pt" viewBox="0 0 318 90" version="1.1" xmlns="http://www.w3.org/2000/svg">
<g id="#ffffffff">
<path fill="#ffffff" opacity="1.00" d=" M 78.60 14.00 C 77.88 11.98 79.44 10.32 80.87 9.15 C 81.96 9.45 83.06 9.75 84.16 10.05 C 90.31 24.84 95.53 40.02 101.27 54.98 C 102.42 57.36 100.82 59.80 98.54 60.61 C 97.81 60.22 96.35 59.45 95.62 59.06 C 92.86 52.76 90.67 46.22 88.20 39.81 C 75.38 44.66 62.56 49.50 49.70 54.23 C 51.87 60.15 54.18 66.02 56.31 71.95 C 57.37 74.28 55.77 76.66 53.58 77.50 C 52.84 77.13 51.37 76.38 50.64 76.01 C 45.07 62.29 40.21 48.30 34.86 34.51 C 34.06 32.24 32.50 29.56 34.35 27.36 C 35.09 25.90 37.07 26.57 38.38 26.38 C 42.52 32.50 43.87 40.01 46.87 46.69 C 59.68 41.76 72.55 37.02 85.40 32.19 C 83.09 26.14 80.68 20.13 78.60 14.00 Z" />
<path fill="#ffffff" opacity="1.00" d=" M 90.55 16.88 C 90.84 14.99 91.27 11.75 93.94 12.23 C 96.47 12.19 97.33 14.93 98.31 16.76 C 99.14 19.53 100.18 22.23 101.25 24.92 C 101.73 26.31 102.26 27.69 102.75 29.08 C 103.27 30.34 103.76 31.61 104.27 32.88 C 104.75 34.30 105.28 35.71 105.75 37.13 C 106.26 38.39 106.76 39.64 107.29 40.89 C 108.35 43.49 109.24 46.26 108.60 49.10 C 107.88 49.47 106.44 50.21 105.72 50.58 C 102.06 49.18 101.45 45.12 100.23 41.90 C 99.72 40.63 99.23 39.35 98.73 38.08 C 98.13 36.40 97.50 34.73 96.86 33.06 C 96.49 32.07 96.11 31.09 95.73 30.10 C 95.25 28.69 94.72 27.29 94.22 25.88 C 93.71 24.61 93.23 23.34 92.74 22.07 C 92.10 20.30 91.38 18.56 90.55 16.88 Z" />
<path fill="#ffffff" opacity="1.00" d=" M 103.75 15.78 C 104.58 15.39 105.40 14.99 106.23 14.60 C 107.27 15.30 108.30 16.02 109.33 16.74 C 111.58 22.86 113.96 28.93 116.17 35.06 C 117.27 37.59 115.11 39.76 112.91 40.59 C 111.65 39.48 109.99 38.61 109.45 36.92 C 107.18 30.91 104.93 24.90 102.70 18.87 C 103.05 17.84 103.40 16.81 103.75 15.78 Z" />
<path fill="#ffffff" opacity="1.00" d=" M 140.46 16.54 C 143.35 15.13 147.06 17.76 146.19 21.01 C 145.87 24.88 139.54 25.45 138.32 21.92 C 137.45 20.00 138.25 17.10 140.46 16.54 Z" />
<path fill="#ffffff" opacity="1.00" d=" M 138.50 28.25 C 140.91 28.25 143.33 28.25 145.75 28.25 C 145.75 40.17 145.75 52.09 145.76 64.02 C 145.82 67.32 144.78 71.09 141.68 72.78 C 138.23 74.75 134.04 74.37 130.30 73.57 C 130.26 71.58 130.24 69.59 130.22 67.59 C 133.07 67.98 137.76 69.00 138.35 64.98 C 138.71 52.75 138.39 40.49 138.50 28.25 Z" />
<path fill="#ffffff" opacity="1.00" d=" M 148.38 28.28 C 151.04 28.24 153.70 28.25 156.37 28.25 C 159.02 36.20 162.24 43.96 164.58 52.02 C 166.63 43.93 169.85 36.20 172.38 28.25 C 175.01 28.25 177.64 28.25 180.28 28.27 C 175.98 40.16 171.38 51.94 166.99 63.80 C 165.62 67.69 163.24 71.61 159.28 73.25 C 156.27 74.61 152.91 74.25 149.76 73.78 C 149.75 71.78 149.75 69.78 149.75 67.79 C 152.14 67.88 154.82 68.55 156.93 67.02 C 159.21 65.31 159.94 62.38 161.03 59.89 C 156.77 49.37 152.47 38.87 148.38 28.28 Z" />
<path fill="#ffffff" opacity="1.00" d=" M 183.02 28.29 C 184.96 28.26 186.90 28.25 188.84 28.24 C 189.10 29.40 189.36 30.56 189.61 31.72 C 194.38 26.12 204.63 25.79 208.94 32.10 C 213.78 25.51 227.19 25.50 229.32 34.43 C 230.68 42.94 229.71 51.63 229.99 60.21 C 227.50 60.26 225.00 60.26 222.50 60.22 C 222.46 53.15 222.55 46.07 222.48 39.00 C 222.61 36.06 220.05 33.29 217.01 33.72 C 213.41 33.40 210.58 36.55 210.36 39.97 C 209.60 46.70 210.18 53.50 210.00 60.25 C 207.59 60.25 205.17 60.25 202.76 60.24 C 202.71 53.48 202.79 46.72 202.74 39.96 C 202.73 37.75 202.09 35.02 199.81 34.13 C 196.16 32.63 191.49 34.78 190.90 38.85 C 189.64 45.90 190.50 53.13 190.25 60.26 C 187.83 60.26 185.42 60.25 183.01 60.21 C 183.00 49.57 182.98 38.93 183.02 28.29 Z" />
<path fill="#ffffff" opacity="1.00" d=" M 27.22 37.17 C 28.48 35.57 30.95 36.49 32.01 37.88 C 32.97 39.43 33.56 41.17 34.29 42.84 C 34.75 44.27 35.28 45.68 35.77 47.11 C 36.27 48.35 36.74 49.61 37.24 50.85 C 38.17 53.55 39.19 56.21 40.26 58.86 C 40.74 60.28 41.28 61.69 41.79 63.11 C 42.45 64.77 43.07 66.45 43.72 68.12 C 44.07 69.30 44.34 70.48 44.53 71.69 C 44.12 72.37 43.30 73.72 42.89 74.40 C 38.77 75.42 37.19 71.02 36.20 67.92 C 35.70 66.64 35.23 65.36 34.72 64.09 C 34.22 62.68 33.70 61.28 33.21 59.87 C 32.72 58.63 32.24 57.38 31.74 56.15 C 31.27 54.72 30.73 53.32 30.23 51.90 C 29.72 50.64 29.24 49.37 28.73 48.12 C 28.22 46.69 27.66 45.29 27.09 43.89 C 26.45 41.77 25.33 38.98 27.22 37.17 Z" />
<path fill="#ffffff" opacity="1.00" d=" M 20.57 46.68 C 22.72 45.93 24.83 47.50 25.53 49.50 C 27.93 55.67 30.28 61.86 32.45 68.12 C 31.68 69.26 31.61 71.40 29.89 71.54 C 27.59 72.28 25.72 70.10 25.10 68.12 C 23.08 62.74 21.04 57.36 19.07 51.96 C 18.16 50.15 18.90 47.76 20.57 46.68 Z" />
</g>
<g id="#48da8cfe">
<path fill="#48da8c" opacity="1.00" d=" M 235.51 39.77 C 237.26 39.95 239.28 39.86 239.91 41.90 C 243.32 39.15 248.38 39.18 251.63 42.20 C 254.52 39.86 258.73 38.97 262.09 40.86 C 264.15 42.10 264.53 44.71 264.67 46.90 C 264.88 51.27 264.70 55.64 264.75 60.00 C 263.16 60.00 261.58 60.00 260.00 60.00 C 259.87 55.39 260.30 50.74 259.77 46.15 C 259.08 42.64 253.18 43.38 252.72 46.73 C 251.81 51.08 252.40 55.58 252.26 60.00 C 250.75 60.00 249.25 60.00 247.75 60.00 C 247.60 55.36 248.13 50.67 247.43 46.07 C 246.68 42.82 241.33 43.31 240.60 46.38 C 239.49 50.82 240.18 55.47 240.01 60.00 C 238.50 60.00 237.00 60.00 235.50 60.00 C 235.50 53.26 235.48 46.51 235.51 39.77 Z" />
<path fill="#48da8c" opacity="1.00" d=" M 270.40 42.44 C 273.91 38.74 281.01 38.86 284.04 43.13 C 285.70 45.49 285.46 48.50 285.61 51.24 C 281.17 51.27 276.72 51.18 272.28 51.34 C 273.06 52.96 273.33 55.15 275.13 55.99 C 278.19 57.27 281.53 56.10 284.56 55.34 C 284.54 56.33 284.49 58.31 284.47 59.29 C 280.90 60.23 277.01 60.87 273.44 59.69 C 266.84 57.04 266.18 47.40 270.40 42.44 M 272.37 47.68 C 275.37 47.77 278.38 47.77 281.39 47.70 C 280.55 45.79 279.65 43.06 277.03 43.40 C 274.38 43.06 273.34 45.78 272.37 47.68 Z" />
</g>
</svg>
